<?xml version="1.0" encoding="UTF-8" standalone="no"?> <svg width="64" height="64" viewBox="0 0 64 64" fill="none" xmlns="http://www.w3.org/2000/svg">
<path d="M32 56.87C33.1255 56.8728 34.2347 56.6011 35.2315 56.0783C36.2282 55.5555 37.0824 54.7975 37.72 53.87C44.58 44.16 52.72 31.04 52.72 23.71C52.72 18.2068 50.5338 12.9289 46.6424 9.03756C42.7511 5.14618 37.4732 2.96002 31.97 2.96002C26.4667 2.96002 21.1889 5.14618 17.2975 9.03756C13.4061 12.9289 11.22 18.2068 11.22 23.71C11.22 31.04 19.39 44.16 26.22 53.87C26.8632 54.806 27.727 55.5692 28.735 56.0924C29.743 56.6156 30.8643 56.8827 32 56.87ZM32 5.00002C36.9712 5.00532 41.7372 6.98246 45.2524 10.4976C48.7675 14.0128 50.7447 18.7788 50.75 23.75C50.75 30.92 41.56 45 36.08 52.75C35.618 53.4022 35.0065 53.934 34.2966 54.3011C33.5867 54.6682 32.7991 54.8598 32 54.8598C31.2008 54.8598 30.4133 54.6682 29.7034 54.3011C28.9935 53.934 28.3819 53.4022 27.92 52.75C22.44 44.99 13.25 30.91 13.25 23.75C13.2553 18.7788 15.2324 14.0128 18.7476 10.4976C22.2627 6.98246 27.0288 5.00532 32 5.00002V5.00002Z" fill="black"/>
<path d="M47.71 23.57C47.7081 20.4633 46.785 17.4269 45.0576 14.8447C43.3301 12.2625 40.8759 10.2505 38.0051 9.06299C35.1343 7.87547 31.9758 7.56578 28.929 8.17309C25.8823 8.78039 23.0839 10.2774 20.8879 12.4749C18.6918 14.6724 17.1965 17.4716 16.5912 20.5188C15.9858 23.566 16.2975 26.7242 17.4869 29.5943C18.6762 32.4643 20.6898 34.9173 23.2731 36.6431C25.8564 38.3689 28.8933 39.29 32 39.29C36.1675 39.2874 40.1634 37.63 43.1093 34.6822C46.0552 31.7344 47.71 27.7375 47.71 23.57V23.57ZM18.29 23.57C18.292 20.8588 19.0978 18.2091 20.6055 15.9559C22.1131 13.7026 24.255 11.9469 26.7604 10.9107C29.2657 9.8746 32.022 9.60452 34.6809 10.1347C37.3397 10.6648 39.7816 11.9713 41.698 13.8891C43.6144 15.8069 44.9191 18.2498 45.4473 20.909C45.9755 23.5682 45.7034 26.3243 44.6655 28.8289C43.6275 31.3335 41.8703 33.4741 39.6159 34.9801C37.3615 36.4862 34.7112 37.29 32 37.29C28.3638 37.2847 24.8782 35.8372 22.3079 33.2651C19.7377 30.6929 18.2927 27.2062 18.29 23.57V23.57Z" fill="black"/>
<path d="M46.4499 49.26C46.3186 49.2351 46.1837 49.2362 46.0528 49.2634C45.9219 49.2906 45.7977 49.3434 45.6872 49.4186C45.5767 49.4938 45.4821 49.59 45.4088 49.7018C45.3355 49.8136 45.2849 49.9387 45.2599 50.07C45.235 50.2013 45.2361 50.3363 45.2633 50.4672C45.2905 50.598 45.3433 50.7223 45.4185 50.8328C45.4937 50.9433 45.5899 51.0379 45.7017 51.1112C45.8135 51.1845 45.9386 51.2351 46.0699 51.26C52.2199 52.48 53.5699 54.04 53.5699 54.54C53.5699 55.62 49.2199 57.98 38.7299 58.78C34.2497 59.12 29.7502 59.12 25.2699 58.78C14.7799 57.98 10.4299 55.62 10.4299 54.54C10.4299 54.04 11.7799 52.48 17.9299 51.26C18.1951 51.2096 18.4295 51.0559 18.5814 50.8328C18.7333 50.6096 18.7903 50.3352 18.7399 50.07C18.6895 49.8048 18.5359 49.5705 18.3127 49.4186C18.0895 49.2667 17.8151 49.2096 17.5499 49.26C13.3899 50.08 8.42993 51.65 8.42993 54.5C8.42993 59.1 21.1999 60.44 25.1099 60.74C27.3199 60.91 29.6399 61 31.9999 61C34.3599 61 36.6799 60.91 38.8899 60.74C42.7999 60.44 55.5699 59.1 55.5699 54.5C55.5699 51.65 50.6099 50.08 46.4499 49.26Z" fill="black"/>
<path d="M40.91 31.43C41.1633 31.1194 41.3449 30.7566 41.4417 30.3677C41.5385 29.9787 41.5482 29.5731 41.47 29.18L39.61 19.89C39.4874 19.2841 39.1621 18.7381 38.6877 18.3418C38.2132 17.9456 37.618 17.7227 37 17.71H36.92V17.25C36.92 15.9584 36.4069 14.7197 35.4936 13.8064C34.5803 12.8931 33.3416 12.38 32.05 12.38C30.7584 12.38 29.5197 12.8931 28.6064 13.8064C27.6931 14.7197 27.18 15.9584 27.18 17.25V17.71H27.1C26.4733 17.7114 25.8664 17.929 25.3817 18.3262C24.897 18.7235 24.5644 19.2758 24.44 19.89L22.58 29.18C22.5017 29.5738 22.5117 29.98 22.609 30.3695C22.7063 30.759 22.8887 31.1221 23.143 31.4328C23.3972 31.7435 23.7171 31.994 24.0797 32.1664C24.4423 32.3388 24.8385 32.4288 25.24 32.43H38.81C39.2122 32.4289 39.6091 32.3387 39.9723 32.1658C40.3354 31.9929 40.6556 31.7416 40.91 31.43V31.43ZM29.13 17.25C29.13 16.8731 29.2042 16.4999 29.3484 16.1517C29.4927 15.8035 29.7041 15.4871 29.9706 15.2206C30.2371 14.9541 30.5535 14.7427 30.9017 14.5985C31.2499 14.4542 31.6231 14.38 32 14.38C32.3769 14.38 32.7501 14.4542 33.0983 14.5985C33.4465 14.7427 33.7629 14.9541 34.0294 15.2206C34.2959 15.4871 34.5073 15.8035 34.6515 16.1517C34.7957 16.4999 34.87 16.8731 34.87 17.25V17.71H29.13V17.25ZM24.64 30.17C24.5722 30.0893 24.5234 29.9943 24.4975 29.8922C24.4715 29.79 24.4689 29.6833 24.49 29.58L26.35 20.29C26.3822 20.1276 26.4694 19.9812 26.5969 19.8756C26.7244 19.7699 26.8844 19.7114 27.05 19.71H27.13V20.88C27.13 21.1452 27.2353 21.3996 27.4229 21.5871C27.6104 21.7746 27.8648 21.88 28.13 21.88C28.3952 21.88 28.6495 21.7746 28.8371 21.5871C29.0246 21.3996 29.13 21.1452 29.13 20.88V19.71H34.87V20.88C34.87 21.1452 34.9753 21.3996 35.1629 21.5871C35.3504 21.7746 35.6048 21.88 35.87 21.88C36.1352 21.88 36.3895 21.7746 36.5771 21.5871C36.7646 21.3996 36.87 21.1452 36.87 20.88V19.71H37C37.1656 19.7114 37.3256 19.7699 37.4531 19.8756C37.5806 19.9812 37.6678 20.1276 37.7 20.29L39.56 29.58C39.581 29.6833 39.5784 29.79 39.5525 29.8922C39.5265 29.9943 39.4778 30.0893 39.41 30.17C39.3424 30.2503 39.2583 30.3152 39.1633 30.36C39.0684 30.4049 38.965 30.4288 38.86 30.43H25.19C25.085 30.4288 24.9815 30.4049 24.8866 30.36C24.7917 30.3152 24.7076 30.2503 24.64 30.17V30.17Z" fill="black"/>
</svg>
